<svg width="115" height="115" viewBox="0 0 115 115" fill="none" xmlns="http://www.w3.org/2000/svg">
<g clip-path="url(#clip0_32_2360)">
<g filter="url(#filter0_f_32_2360)">
<path d="M69.6503 34.7528C66.0519 30.4615 60.1062 28.2073 53.1058 29.1897C52.4233 29.2827 51.7512 29.4172 51.0895 29.5619L50.4897 29.7067L49.7452 29.8928L48.8663 30.172L48.5974 30.2547C48.1114 30.4202 47.6358 30.5856 47.1705 30.7717L46.8499 30.9165C46.519 31.0509 46.1881 31.206 45.8159 31.3611C45.4436 31.5162 45.3299 31.5679 45.0817 31.692L44.7405 31.8781C44.482 32.0022 44.2338 32.147 43.9753 32.2814C43.7168 32.4158 43.541 32.5089 43.3239 32.6433C43.1067 32.7778 42.993 32.8501 42.8172 32.9535L42.1657 33.3672L41.7314 33.636L40.9559 34.2047L40.4492 34.5666L40.2631 34.7011C39.7875 35.063 39.3222 35.4456 38.8672 35.8385L38.6811 36.0039C38.2985 36.3452 37.9262 36.6864 37.5643 37.038L37.3575 37.2551L36.8508 37.7721C36.6647 37.979 36.4579 38.1754 36.2717 38.3822L35.9305 38.7855L35.3825 39.4369L34.9999 39.8919C34.8655 40.0573 34.7517 40.2331 34.6276 40.4089C34.5035 40.5847 34.214 40.957 34.0279 41.2361C33.8418 41.5153 33.8314 41.4843 33.7384 41.6187C33.6453 41.7532 33.5522 41.9393 33.4592 42.0944C33.1903 42.508 32.9318 42.932 32.694 43.3559C32.6009 43.511 32.4975 43.6558 32.4148 43.8109C32.3321 43.966 32.2494 44.1625 32.1563 44.3279L31.8151 45.0207C31.6186 45.424 31.4428 45.8376 31.267 46.2512C31.1843 46.4684 31.0809 46.6855 30.9982 46.9026L30.8948 47.1612C30.7087 47.6678 30.5432 48.1952 30.3881 48.7019C30.3881 48.7949 30.3881 48.888 30.3157 48.9914C30.171 49.5188 30.0365 50.0254 29.9331 50.6045L29.8401 51.1112C29.7263 51.7419 29.6332 52.3727 29.5815 53.0138C29.5815 53.2516 29.5815 53.4895 29.5815 53.7169C29.5815 53.9444 29.5815 54.0995 29.5815 54.2856C29.5815 54.4718 29.5815 54.8337 29.5815 55.0922C29.5815 55.3507 29.5816 55.7023 29.6333 55.9918C29.685 56.2813 29.6333 56.5192 29.6953 56.7777C29.6902 56.8672 29.6902 56.957 29.6953 57.0465C29.6953 57.4188 29.7987 57.791 29.8711 58.1529C29.8711 58.1529 29.8711 58.1529 29.8711 58.2046C29.9331 58.5355 30.0055 58.8561 30.0882 59.1766C30.0882 59.2594 30.1503 59.3421 30.1709 59.4351C30.264 59.766 30.3778 60.0866 30.4915 60.4071C30.4915 60.5622 30.5846 60.7173 30.6363 60.8724C30.6596 60.933 30.6872 60.9917 30.719 61.0482C30.812 61.2964 30.9361 61.5342 31.0395 61.7721C31.1429 62.0099 31.1947 62.134 31.2774 62.3098C31.3601 62.4855 31.3498 62.4235 31.3808 62.4752C31.4844 62.6807 31.5983 62.8809 31.722 63.0749C31.8151 63.2507 31.9081 63.4265 32.0219 63.6023C32.0598 63.6633 32.1012 63.722 32.146 63.7781C32.27 63.9642 32.3941 64.14 32.5285 64.3158C32.663 64.4916 32.7353 64.626 32.8491 64.7707L33.1696 65.174L45.2575 79.6505C45.03 79.3817 44.8232 79.0818 44.6164 78.7923C44.4096 78.5027 44.3579 78.4407 44.2338 78.2546C44.1097 78.0684 43.9443 77.7892 43.8099 77.5514C43.6754 77.3136 43.572 77.1585 43.4583 76.9517C43.3445 76.7449 43.2411 76.4864 43.1274 76.2485C43.0136 76.0107 42.8999 75.7729 42.8068 75.5247C42.7138 75.2765 42.6517 75.1008 42.5794 74.8836C42.507 74.6665 42.3519 74.2425 42.2588 73.9013C42.1657 73.56 42.0416 73.1051 41.9589 72.6914C41.9589 72.6914 41.9589 72.6914 41.9589 72.6294C41.8762 72.1744 41.8142 71.7195 41.7521 71.2541C41.7521 70.9956 41.7521 70.7268 41.6901 70.4683C41.6281 70.2098 41.6901 69.8789 41.6384 69.579C41.5867 69.2791 41.6384 69.031 41.6384 68.7621C41.6384 68.3382 41.6384 67.9246 41.6901 67.4903C41.6901 66.8492 41.8349 66.2184 41.9486 65.5876L42.0417 65.081C42.1451 64.5329 42.2795 63.9952 42.4243 63.4679C42.4243 63.3645 42.476 63.2714 42.4966 63.1783C42.6724 62.5683 42.8792 61.9685 43.1067 61.3791C43.1894 61.162 43.2929 60.9448 43.3756 60.7277C43.5514 60.3141 43.7271 59.9005 43.9236 59.4972L44.2648 58.8044C44.4303 58.4735 44.6164 58.1529 44.8025 57.8324C44.9886 57.5118 45.2989 56.9845 45.5677 56.5709C45.8366 56.1573 45.94 55.9918 46.1364 55.7126C46.3329 55.4334 46.5294 55.1542 46.7362 54.8854C46.943 54.6165 47.2325 54.2339 47.491 53.9134L48.039 53.262C48.3389 52.9207 48.6491 52.5795 48.9594 52.2279C49.2696 51.8764 49.2902 51.8764 49.466 51.7109C49.89 51.287 50.3346 50.863 50.7896 50.4597L50.9757 50.2943C51.4927 49.8393 52.0097 49.405 52.5888 48.9914C52.7542 48.8673 52.9197 48.7432 53.0955 48.6295C53.4884 48.34 53.8917 48.0608 54.3053 47.7919L54.9567 47.3783C55.3393 47.1508 55.7219 46.9233 56.1148 46.7062C56.5078 46.489 56.6215 46.427 56.8801 46.3029C57.1386 46.1788 57.5935 45.9514 57.9141 45.7859C58.2346 45.6205 58.5759 45.4757 58.9481 45.3413C59.5272 45.1034 60.1062 44.8759 60.6956 44.6795L60.9645 44.5968C61.5022 44.421 61.9985 44.2762 62.5879 44.1418L63.1876 43.9867C63.8494 43.8419 64.5215 43.7075 65.204 43.6144C72.1631 42.6321 78.1087 44.8863 81.7485 49.1775L69.6503 34.7528Z" fill="url(#paint0_linear_32_2360)"/>
<path d="M114 54.5649C114 54.203 114 53.841 114 53.4791C114 53.1172 114 52.869 114 52.5588V51.5248L113.938 50.6149C113.938 50.2736 113.886 49.9324 113.855 49.5808C113.824 49.2293 113.793 48.9811 113.762 48.6812C113.731 48.3813 113.762 48.2366 113.69 48.0194C113.617 47.8023 113.69 47.8437 113.69 47.7506C113.586 47.0474 113.473 46.3443 113.338 45.6825C113.338 45.6308 113.338 45.5791 113.338 45.5378C113.193 44.7933 113.018 44.0694 112.832 43.3559C112.832 43.2836 112.832 43.2112 112.78 43.1388C112.728 43.0664 112.676 42.7872 112.625 42.6114C112.521 42.2288 112.418 41.8566 112.294 41.4843C112.17 41.1121 112.128 40.9673 112.035 40.7088C111.942 40.4503 111.787 39.985 111.663 39.6748L111.518 39.2715C111.518 39.1371 111.405 39.013 111.353 38.8786C111.239 38.5891 111.115 38.3099 111.001 38.0307L110.629 37.2035C110.505 36.9346 110.371 36.6554 110.236 36.3866L109.864 35.8902C109.791 35.7661 109.719 35.6421 109.657 35.5076L109.264 34.7942C109.119 34.515 108.964 34.2461 108.799 33.9773L108.385 33.2845L108.168 32.9329C108.075 32.7778 107.972 32.6434 107.879 32.4883L107.444 31.8575C107.265 31.5886 107.079 31.3301 106.886 31.082L106.441 30.4719L106.255 30.2341C106.017 29.9135 105.759 29.6033 105.511 29.3034L93.4228 14.827C93.7434 15.1992 94.0433 15.5921 94.3535 15.9954L94.7981 16.6055C94.998 16.8537 95.1841 17.1122 95.3565 17.381L95.7908 18.0118L96.2975 18.808C96.4422 19.0355 96.5766 19.2733 96.7111 19.5008C96.8455 19.7283 97.0316 20.0385 97.1764 20.3177L97.5693 21.0312L97.9726 21.848C98.107 22.1169 98.2414 22.3961 98.3655 22.6649L98.7378 23.4922C98.8515 23.7713 98.9756 24.0505 99.0893 24.3401L99.3996 25.1363C99.5236 25.4879 99.6581 25.8498 99.7718 26.1703C99.8855 26.4909 99.9476 26.6873 100.03 26.9458C100.113 27.2043 100.258 27.6903 100.361 28.0729C100.465 28.4555 100.506 28.5693 100.568 28.8174C100.754 29.5309 100.93 30.2547 101.075 30.9889C101.075 31.0406 101.075 31.0923 101.075 31.144C101.209 31.8368 101.323 32.54 101.426 33.2121C101.426 33.5223 101.499 33.8325 101.54 34.1427C101.581 34.4529 101.612 34.7424 101.633 35.0423C101.654 35.3422 101.695 35.7248 101.716 36.0763L101.778 36.9863V38.0203C101.778 38.3202 101.778 38.6304 101.778 38.9406C101.778 39.2508 101.778 39.6541 101.778 39.9747C101.778 40.2952 101.778 40.5951 101.778 40.9156C101.778 41.5257 101.716 42.1461 101.664 42.7665C101.612 43.387 101.519 44.2452 101.426 44.9794C101.426 45.1758 101.426 45.3723 101.343 45.5688C101.25 46.1995 101.157 46.82 101.044 47.4404L100.982 47.7919C100.847 48.5158 100.692 49.2396 100.527 49.9531C100.527 50.1392 100.444 50.315 100.392 50.4908C100.247 51.0802 100.103 51.6592 99.9372 52.2486C99.9372 52.4141 99.8442 52.5692 99.8028 52.7346C99.596 53.4481 99.3685 54.1512 99.141 54.8027L98.9859 55.237C98.7998 55.785 98.593 56.271 98.3862 56.8708C98.2828 57.1396 98.1794 57.4188 98.0656 57.6877C97.8795 58.1633 97.683 58.6493 97.4762 59.1146C97.3625 59.3731 97.2591 59.6213 97.1454 59.8695C96.8972 60.4382 96.6387 60.9966 96.3595 61.5446C96.2871 61.6997 96.2251 61.8548 96.1424 62.0099C95.8011 62.7027 95.4392 63.3955 95.1083 64.078C94.7774 64.7604 94.1984 65.6911 93.7227 66.4769L93.4332 66.9422C93.0402 67.573 92.637 68.2038 92.2234 68.8242C91.9649 69.2275 91.696 69.6101 91.4168 70.003L90.8067 70.8819C90.5069 71.2852 90.1967 71.6885 89.8968 72.1021C89.5969 72.5157 89.4935 72.6398 89.2764 72.9086C88.78 73.5394 88.2423 74.1805 87.746 74.8009L87.4875 75.1008C87.0532 75.5971 86.6189 76.1348 86.1743 76.5794C85.3367 77.5101 84.4681 78.4097 83.5788 79.2886C83.3927 79.4851 83.1962 79.6712 82.9998 79.8573C82.1208 80.7052 81.2212 81.5428 80.2906 82.3493L80.0735 82.5355C79.2049 83.28 78.3156 84.0038 77.4056 84.707L76.7749 85.2033C75.8132 85.9374 74.8309 86.6509 73.8279 87.3334L72.2045 88.3674L71.8943 88.5742C71.2118 88.9982 70.519 89.4118 69.8262 89.8254L69.092 90.2287C68.606 90.5079 68.1304 90.7767 67.6444 91.0352L66.7861 91.4695L65.4626 92.1416L64.3251 92.6793L63.0946 93.2274L61.9365 93.7237L60.7784 94.189C60.1683 94.4269 59.5582 94.644 58.9378 94.8612L58.0175 95.1921C57.211 95.4609 56.3941 95.7194 55.5772 95.9572L55.2256 96.0606L55.0085 96.1227C54.3157 96.3088 53.6229 96.4949 52.9404 96.6604L52.227 96.8258C51.6686 96.9499 51.0998 97.074 50.5311 97.1774L49.8383 97.3222C49.0628 97.4566 48.2769 97.591 47.5014 97.7048C43.6695 98.2524 39.7881 98.3669 35.9306 98.046C34.1313 97.8837 32.3429 97.6178 30.5743 97.2498C25.5787 96.2236 20.8326 94.2283 16.6045 91.3765C13.9218 89.5527 11.5034 87.3675 9.41797 84.8827L21.5058 99.3592C29.7781 109.255 43.5204 114.435 59.5893 112.181C60.3648 112.067 61.1507 111.933 61.9262 111.799L62.619 111.664L64.3251 111.302L65.0283 111.137C65.7211 110.971 66.4139 110.796 67.0964 110.599L67.3238 110.537L67.6134 110.444C68.4406 110.206 69.2575 109.948 70.0743 109.679L70.9947 109.358C71.6047 109.131 72.2252 108.914 72.8352 108.676L73.2799 108.51L73.9933 108.211L75.1515 107.714L76.382 107.166L77.5194 106.628L77.9847 106.401C78.2743 106.267 78.5534 106.111 78.843 105.967L79.7012 105.512C80.1872 105.253 80.6629 104.995 81.1489 104.715L81.8727 104.312L82.0485 104.209C82.6896 103.837 83.3203 103.454 83.9511 103.061L84.2613 102.854C84.7473 102.544 85.2333 102.234 85.709 101.913L85.8744 101.789C86.9084 101.107 87.8701 100.393 88.8317 99.6591C88.9248 99.5867 89.0179 99.535 89.1006 99.4626L89.4625 99.1731C90.3724 98.4596 91.2617 97.7461 92.1303 96.9913L92.3061 96.8465C93.2367 96.0399 94.1363 95.2127 95.0153 94.3545L95.3255 94.0649L95.5943 93.7858C96.4836 92.9068 97.3522 92.0072 98.1897 91.0869C98.225 91.0465 98.263 91.0085 98.3035 90.9732C98.7068 90.5182 99.11 90.0529 99.503 89.5876C99.5857 89.4842 99.6787 89.3911 99.7615 89.298C100.258 88.7086 100.744 88.1089 101.219 87.5092L101.302 87.4058L101.902 86.5992C102.212 86.1959 102.522 85.7927 102.822 85.3791L103.432 84.5001C103.66 84.1692 103.897 83.8487 104.115 83.5282L104.239 83.3213C104.652 82.7009 105.056 82.0702 105.449 81.4394L105.738 80.9741C106.214 80.1882 106.679 79.3817 107.113 78.5751L107.175 78.4717C107.537 77.8203 107.868 77.1585 108.209 76.4967C108.292 76.3416 108.354 76.1865 108.427 76.0314C108.706 75.4834 108.964 74.925 109.212 74.3563C109.326 74.1081 109.43 73.8599 109.543 73.6014C109.75 73.1361 109.947 72.6501 110.133 72.1745C110.246 71.9056 110.35 71.6264 110.453 71.3576C110.557 71.0887 110.619 70.9543 110.691 70.7475L111.053 69.7135C111.053 69.5687 111.156 69.4239 111.198 69.2792C111.436 68.576 111.663 67.8729 111.87 67.1594C111.87 66.994 111.953 66.8389 112.004 66.6734C112.17 66.084 112.315 65.505 112.459 64.9156C112.511 64.7398 112.552 64.564 112.594 64.3778C112.759 63.6644 112.914 62.9405 113.049 62.2167L113.111 61.8651C113.224 61.2447 113.318 60.6243 113.411 59.9935C113.411 59.7971 113.462 59.6006 113.493 59.4042C113.586 58.67 113.669 57.9358 113.731 57.1913C113.731 56.6433 113.814 56.0952 113.835 55.5575C113.83 55.4818 113.83 55.4058 113.835 55.3301C113.938 55.175 113.938 54.8751 114 54.5649Z" fill="url(#paint1_linear_32_2360)"/>
<path d="M55.3703 2.02562C83.1444 -1.88303 103.898 16.4297 101.726 42.9113C99.5546 69.3929 75.2755 94.0339 47.5117 97.9322C19.7479 101.831 -1.01554 83.5282 1.15593 57.0362C3.3274 30.5443 27.5962 5.90324 55.3703 2.02562ZM49.7348 70.7785C61.7606 69.093 72.3078 58.3701 73.2487 46.913C74.1897 35.4559 65.1626 27.4939 53.1471 29.1897C41.1317 30.8855 30.5742 41.5981 29.6332 53.0448C28.6923 64.4916 37.709 72.464 49.7348 70.7785Z" fill="url(#paint2_linear_32_2360)"/>
</g>
</g>
<defs>
<filter id="filter0_f_32_2360" x="0" y="0.5" width="115" height="113.203" filterUnits="userSpaceOnUse" color-interpolation-filters="sRGB">
<feFlood flood-opacity="0" result="BackgroundImageFix"/>
<feBlend mode="normal" in="SourceGraphic" in2="BackgroundImageFix" result="shape"/>
<feGaussianBlur stdDeviation="0.5" result="effect1_foregroundBlur_32_2360"/>
</filter>
<linearGradient id="paint0_linear_32_2360" x1="18546.8" y1="9219.86" x2="16342.4" y2="12030.7" gradientUnits="userSpaceOnUse">
<stop stop-color="#FF8F0A"/>
<stop offset="1" stop-color="#FFC12B"/>
</linearGradient>
<linearGradient id="paint1_linear_32_2360" x1="40578.9" y1="16478.7" x2="35220.2" y2="24727.9" gradientUnits="userSpaceOnUse">
<stop stop-color="#FFE9B5"/>
<stop offset="1" stop-color="#FFCB4E"/>
</linearGradient>
<linearGradient id="paint2_linear_32_2360" x1="-84" y1="77" x2="147" y2="1.49999" gradientUnits="userSpaceOnUse">
<stop stop-color="#FFBE21"/>
<stop offset="1" stop-color="#FF7A00"/>
</linearGradient>
<clipPath id="clip0_32_2360">
<rect width="115" height="114" fill="white" transform="translate(0 0.5)"/>
</clipPath>
</defs>
</svg>
