<svg width="28" height="29" viewBox="0 0 28 29" fill="none" xmlns="http://www.w3.org/2000/svg">
<path fill-rule="evenodd" clip-rule="evenodd" d="M2.3335 14.5C2.3335 13.8557 2.85584 13.3333 3.50016 13.3333H24.5002C25.1445 13.3333 25.6669 13.8557 25.6669 14.5C25.6669 15.1444 25.1445 15.6667 24.5002 15.6667H3.50016C2.85584 15.6667 2.3335 15.1444 2.3335 14.5Z" fill="#3EBDF2"/>
<path fill-rule="evenodd" clip-rule="evenodd" d="M16.6752 6.67505C17.1307 6.21944 17.8695 6.21944 18.3251 6.67505L25.3251 13.6751C25.7806 14.1306 25.7806 14.8694 25.3251 15.325L18.3251 22.325C17.8695 22.7805 17.1307 22.7805 16.6752 22.325C16.2196 21.8694 16.2196 21.1306 16.6752 20.6751L22.8502 14.5L16.6752 8.32497C16.2196 7.86935 16.2196 7.13067 16.6752 6.67505Z" fill="#DD2F6C"/>
</svg>
