<svg width="300" height="173" viewBox="0 0 300 173" fill="none" xmlns="http://www.w3.org/2000/svg">
<rect width="300" height="172.532" rx="15.4506" fill="#16194F"/>
<mask id="mask0_32_372" style="mask-type:alpha" maskUnits="userSpaceOnUse" x="0" y="0" width="300" height="173">
<rect width="300" height="172.532" rx="15.4506" fill="#16194F"/>
</mask>
<g mask="url(#mask0_32_372)">
<path d="M191.842 -42.4004C202.597 -48.8024 215.993 -48.8024 226.748 -42.4004L265.217 -19.5006C268.871 -17.3253 272.9 -15.8523 277.095 -15.1576L318.998 -8.21847C335.539 -5.47919 347.639 8.87242 347.543 25.6388L347.434 44.5739C347.396 51.3053 349.349 57.8978 353.049 63.5216L362.131 77.3271C372.874 93.6583 367.728 115.659 350.855 125.53L327.07 139.444C322.44 142.153 318.513 145.916 315.61 150.426L300.572 173.786C292.078 186.982 275.678 192.682 260.83 187.598L235.133 178.8C226.433 175.821 216.899 176.481 208.691 180.628L183.284 193.469C170.332 200.014 154.657 197.651 144.211 187.578L101.499 146.395C99.549 144.515 97.3824 142.874 95.0446 141.506L67.7357 125.53C50.8628 115.659 45.7162 93.6583 56.4596 77.3271L65.5417 63.5216C69.2413 57.8978 71.1947 51.3053 71.1561 44.5739L71.0476 25.6388C70.9515 8.87245 83.0514 -5.47919 99.5928 -8.21847L141.495 -15.1576C145.691 -15.8523 149.719 -17.3253 153.374 -19.5006L191.842 -42.4004Z" fill="#9A94FF"/>
<path d="M68.5416 -89.8636C80.4672 -98.4766 96.5704 -98.4766 108.496 -89.8636L128.44 -75.4597C132.394 -72.604 136.914 -70.6292 141.696 -69.6684L164.421 -65.1026C180.415 -61.8891 191.896 -47.8033 191.819 -31.4898L191.743 -15.4C191.716 -9.66537 193.135 -4.01645 195.869 1.02484L203.083 14.331C211.31 29.5032 206.912 48.4293 192.837 58.4187L177.864 69.0462C173.525 72.126 169.967 76.1779 167.473 80.8783L157.938 98.8481C150.819 112.266 135.688 119.362 120.82 116.255L95.4968 110.964C90.8945 110.003 86.1431 110.003 81.5408 110.964L56.2178 116.255C41.3497 119.362 26.2184 112.266 19.0993 98.8481L9.56494 80.8783C7.07102 76.1779 3.51234 72.126 -0.826782 69.0462L-15.7999 58.4187C-29.8741 48.4293 -34.2725 29.5032 -26.0459 14.3311L-18.831 1.02485C-16.0975 -4.01644 -14.6788 -9.66538 -14.7058 -15.4L-14.7818 -31.4898C-14.8589 -47.8033 -3.37719 -61.8891 12.6169 -65.1026L35.3417 -69.6684C40.1236 -70.6292 44.6439 -72.604 48.5979 -75.4597L68.5416 -89.8636Z" fill="#CAC7FF"/>
<path d="M90.4192 67.8087C102.615 58.5498 119.486 58.5498 131.682 67.8087L148.642 80.6848C152.656 83.7314 157.294 85.8514 162.223 86.8925L182.256 91.1234C198.091 94.4677 209.398 108.476 209.326 124.661L209.25 141.416C209.226 146.91 210.528 152.328 213.047 157.211L220.497 171.655C228.146 186.483 223.95 204.667 210.577 214.644L196.208 225.365C191.974 228.524 188.532 232.622 186.151 237.338L177.585 254.309C170.566 268.214 155.021 275.601 139.806 272.26L118.369 267.552C113.548 266.493 108.553 266.493 103.732 267.552L82.2945 272.26C67.0804 275.601 51.5349 268.214 44.5158 254.309L35.9496 237.338C33.5694 232.622 30.1268 228.524 25.8932 225.365L11.5238 214.644C-1.84882 204.667 -6.04506 186.483 1.60367 171.655L9.05436 157.211C11.573 152.328 12.8753 146.91 12.8506 141.416L12.7754 124.661C12.7026 108.476 24.0097 94.4677 39.8447 91.1234L59.8777 86.8925C64.8075 85.8514 69.4455 83.7314 73.4585 80.6848L90.4192 67.8087Z" fill="#16194F"/>
<mask id="mask1_32_372" style="mask-type:alpha" maskUnits="userSpaceOnUse" x="-31" y="-97" width="239" height="214">
<path d="M68.543 -89.8636C80.4686 -98.4766 96.5718 -98.4766 108.497 -89.8636L128.441 -75.4597C132.395 -72.604 136.915 -70.6292 141.697 -69.6684L164.422 -65.1026C180.416 -61.8891 191.898 -47.8033 191.821 -31.4898L191.745 -15.4C191.718 -9.66538 193.137 -4.01644 195.87 1.02485L203.085 14.331C211.312 29.5032 206.913 48.4293 192.839 58.4187L177.866 69.0462C173.527 72.126 169.968 76.178 167.474 80.8783L157.94 98.8481C150.821 112.266 135.689 119.362 120.821 116.255L95.4982 110.964C90.8959 110.003 86.1445 110.003 81.5422 110.964L56.2192 116.255C41.3511 119.362 26.2198 112.266 19.1008 98.8481L9.56636 80.8783C7.07244 76.178 3.51376 72.126 -0.825356 69.0462L-15.7985 58.4187C-29.8727 48.4293 -34.2711 29.5032 -26.0444 14.3311L-18.8296 1.02485C-16.0961 -4.01643 -14.6773 -9.66538 -14.7044 -15.4L-14.7804 -31.4898C-14.8575 -47.8033 -3.37576 -61.8891 12.6183 -65.1026L35.3431 -69.6684C40.125 -70.6292 44.6453 -72.604 48.5993 -75.4597L68.543 -89.8636Z" fill="#CAC7FF"/>
</mask>
<g mask="url(#mask1_32_372)">
<path d="M90.4204 67.8087C102.616 58.5498 119.487 58.5498 131.683 67.8087L148.644 80.6848C152.657 83.7314 157.295 85.8514 162.225 86.8925L182.258 91.1234C198.093 94.4677 209.4 108.476 209.327 124.661L209.252 141.416C209.227 146.91 210.529 152.328 213.048 157.211L220.499 171.655C228.147 186.483 223.951 204.667 210.578 214.644L196.209 225.365C191.975 228.524 188.533 232.622 186.153 237.338L177.586 254.309C170.567 268.214 155.022 275.601 139.808 272.26L118.371 267.552C113.549 266.493 108.555 266.493 103.733 267.552L82.2957 272.26C67.0816 275.601 51.5361 268.214 44.5171 254.309L35.9508 237.338C33.5706 232.622 30.1281 228.524 25.8944 225.365L11.5251 214.644C-1.84758 204.667 -6.04382 186.483 1.6049 171.655L9.0556 157.211C11.5742 152.328 12.8766 146.91 12.8519 141.416L12.7766 124.661C12.7039 108.476 24.0109 94.4677 39.846 91.1234L59.8789 86.8925C64.8087 85.8514 69.4467 83.7314 73.4598 80.6848L90.4204 67.8087Z" fill="#F44E77"/>
</g>
</g>
<path d="M30.7991 38.7299H28.996V42.751H26.7327V31.7665H30.8142C32.1118 31.7665 33.1126 32.0557 33.8168 32.6341C34.5209 33.2125 34.873 34.0298 34.873 35.086C34.873 35.8354 34.7095 36.4616 34.3826 36.9645C34.0607 37.4625 33.5703 37.8598 32.9115 38.1565L35.2879 42.6454V42.751H32.8586L30.7991 38.7299ZM28.996 36.8966H30.8217C31.39 36.8966 31.8301 36.7533 32.1419 36.4666C32.4538 36.1749 32.6097 35.7751 32.6097 35.2671C32.6097 34.749 32.4613 34.3416 32.1646 34.0449C31.8729 33.7482 31.4227 33.5998 30.8142 33.5998H28.996V36.8966ZM36.1178 38.5941C36.1178 37.7843 36.2737 37.0626 36.5855 36.4289C36.8973 35.7952 37.345 35.3048 37.9284 34.9578C38.5168 34.6107 39.1983 34.4372 39.9729 34.4372C41.0743 34.4372 41.9721 34.7742 42.6662 35.4481C43.3653 36.1221 43.7551 37.0375 43.8355 38.1942L43.8506 38.7525C43.8506 40.0049 43.5011 41.0108 42.802 41.7702C42.1029 42.5246 41.1649 42.9019 39.988 42.9019C38.8111 42.9019 37.8705 42.5246 37.1664 41.7702C36.4673 41.0158 36.1178 39.9898 36.1178 38.6922V38.5941ZM38.2981 38.7525C38.2981 39.5271 38.4439 40.1205 38.7356 40.533C39.0273 40.9404 39.4448 41.144 39.988 41.144C40.5161 41.144 40.9285 40.9429 41.2252 40.5405C41.522 40.1331 41.6703 39.4843 41.6703 38.5941C41.6703 37.8346 41.522 37.2462 41.2252 36.8287C40.9285 36.4113 40.511 36.2026 39.9729 36.2026C39.4398 36.2026 39.0273 36.4113 38.7356 36.8287C38.4439 37.2412 38.2981 37.8824 38.2981 38.7525ZM47.2003 34.5881L47.2682 35.5311C47.8516 34.8018 48.6337 34.4372 49.6144 34.4372C50.4795 34.4372 51.1233 34.6912 51.5458 35.1992C51.9683 35.7072 52.1845 36.4666 52.1946 37.4775V42.751H50.0143V37.5303C50.0143 37.0676 49.9137 36.7332 49.7125 36.527C49.5113 36.3157 49.1769 36.2101 48.7091 36.2101C48.0955 36.2101 47.6353 36.4716 47.3285 36.9947V42.751H45.1482V34.5881H47.2003ZM58.5846 42.751C58.484 42.5548 58.4111 42.3109 58.3658 42.0192C57.8377 42.6076 57.1512 42.9019 56.3062 42.9019C55.5065 42.9019 54.8426 42.6705 54.3145 42.2078C53.7915 41.7451 53.5299 41.1617 53.5299 40.4575C53.5299 39.5924 53.8493 38.9286 54.488 38.4658C55.1318 38.0031 56.0598 37.7693 57.2719 37.7642H58.2753V37.2965C58.2753 36.9193 58.1772 36.6175 57.981 36.3912C57.7899 36.1648 57.4856 36.0517 57.0682 36.0517C56.701 36.0517 56.4118 36.1397 56.2006 36.3157C55.9944 36.4918 55.8913 36.7332 55.8913 37.04H53.711C53.711 36.5672 53.8568 36.1296 54.1485 35.7273C54.4403 35.3249 54.8527 35.0106 55.3858 34.7842C55.9189 34.5529 56.5174 34.4372 57.1813 34.4372C58.1872 34.4372 58.9844 34.6912 59.5729 35.1992C60.1664 35.7021 60.4631 36.4113 60.4631 37.3267V40.8649C60.4681 41.6395 60.5763 42.2254 60.7875 42.6227V42.751H58.5846ZM56.7815 41.2346C57.1034 41.2346 57.4001 41.1642 57.6717 41.0233C57.9433 40.8775 58.1445 40.6838 58.2753 40.4424V39.0392H57.4605C56.3691 39.0392 55.7882 39.4164 55.7178 40.1708L55.7102 40.2991C55.7102 40.5707 55.8058 40.7945 55.9969 40.9705C56.188 41.1466 56.4495 41.2346 56.7815 41.2346ZM64.4389 42.751H62.2511V31.163H64.4389V42.751ZM65.9025 38.6092C65.9025 37.3367 66.1867 36.3233 66.755 35.5688C67.3284 34.8144 68.1105 34.4372 69.1013 34.4372C69.8959 34.4372 70.5523 34.7339 71.0703 35.3274V31.163H73.2582V42.751H71.2891L71.1835 41.8834C70.6403 42.5624 69.9412 42.9019 69.0862 42.9019C68.1255 42.9019 67.3535 42.5246 66.7701 41.7702C66.1917 41.0108 65.9025 39.9571 65.9025 38.6092ZM68.0828 38.7676C68.0828 39.5321 68.2161 40.118 68.4826 40.5254C68.7492 40.9328 69.1365 41.1365 69.6445 41.1365C70.3184 41.1365 70.7937 40.8523 71.0703 40.284V37.0626C70.7987 36.4943 70.3285 36.2101 69.6595 36.2101C68.6084 36.2101 68.0828 37.0626 68.0828 38.7676ZM83.0053 38.7299H81.2023V42.751H78.939V31.7665H83.0204C84.318 31.7665 85.3189 32.0557 86.023 32.6341C86.7272 33.2125 87.0792 34.0298 87.0792 35.086C87.0792 35.8354 86.9158 36.4616 86.5889 36.9645C86.267 37.4625 85.7766 37.8598 85.1177 38.1565L87.4942 42.6454V42.751H85.0649L83.0053 38.7299ZM81.2023 36.8966H83.028C83.5963 36.8966 84.0364 36.7533 84.3482 36.4666C84.66 36.1749 84.816 35.7751 84.816 35.2671C84.816 34.749 84.6676 34.3416 84.3708 34.0449C84.0791 33.7482 83.629 33.5998 83.0204 33.5998H81.2023V36.8966ZM90.9645 42.751H88.7767V34.5881H90.9645V42.751ZM88.6484 32.4757C88.6484 32.1488 88.7566 31.8797 88.9728 31.6685C89.1941 31.4572 89.4934 31.3516 89.8706 31.3516C90.2428 31.3516 90.5395 31.4572 90.7608 31.6685C90.9821 31.8797 91.0928 32.1488 91.0928 32.4757C91.0928 32.8076 90.9796 33.0792 90.7533 33.2905C90.532 33.5017 90.2378 33.6073 89.8706 33.6073C89.5035 33.6073 89.2067 33.5017 88.9804 33.2905C88.7591 33.0792 88.6484 32.8076 88.6484 32.4757ZM96.1625 41.144C96.5649 41.144 96.8918 41.0334 97.1433 40.8121C97.3948 40.5908 97.5255 40.2966 97.5356 39.9294H99.5801C99.575 40.4827 99.4242 40.9906 99.1274 41.4534C98.8307 41.911 98.4233 42.2681 97.9053 42.5246C97.3922 42.7761 96.8239 42.9019 96.2002 42.9019C95.0334 42.9019 94.113 42.5322 93.4391 41.7929C92.7651 41.0485 92.4281 40.0225 92.4281 38.7148V38.5715C92.4281 37.3141 92.7626 36.3107 93.4315 35.5613C94.1004 34.8119 95.0183 34.4372 96.1852 34.4372C97.2062 34.4372 98.0234 34.7289 98.637 35.3123C99.2557 35.8907 99.57 36.6628 99.5801 37.6284H97.5356C97.5255 37.2059 97.3948 36.8639 97.1433 36.6024C96.8918 36.3358 96.5599 36.2026 96.1474 36.2026C95.6395 36.2026 95.2547 36.3887 94.9932 36.7608C94.7367 37.128 94.6084 37.7265 94.6084 38.5564V38.7827C94.6084 39.6226 94.7367 40.2262 94.9932 40.5933C95.2497 40.9605 95.6395 41.144 96.1625 41.144ZM102.952 35.4783C103.531 34.7842 104.258 34.4372 105.133 34.4372C106.903 34.4372 107.801 35.4657 107.826 37.5228V42.751H105.646V37.5832C105.646 37.1154 105.545 36.7709 105.344 36.5496C105.143 36.3233 104.808 36.2101 104.341 36.2101C103.702 36.2101 103.239 36.4565 102.952 36.9494V42.751H100.772V31.163H102.952V35.4783ZM114.201 42.751C114.1 42.5548 114.027 42.3109 113.982 42.0192C113.454 42.6076 112.767 42.9019 111.922 42.9019C111.123 42.9019 110.459 42.6705 109.931 42.2078C109.408 41.7451 109.146 41.1617 109.146 40.4575C109.146 39.5924 109.466 38.9286 110.104 38.4658C110.748 38.0031 111.676 37.7693 112.888 37.7642H113.892V37.2965C113.892 36.9193 113.793 36.6175 113.597 36.3912C113.406 36.1648 113.102 36.0517 112.684 36.0517C112.317 36.0517 112.028 36.1397 111.817 36.3157C111.611 36.4918 111.508 36.7332 111.508 37.04H109.327C109.327 36.5672 109.473 36.1296 109.765 35.7273C110.057 35.3249 110.469 35.0106 111.002 34.7842C111.535 34.5529 112.134 34.4372 112.798 34.4372C113.804 34.4372 114.601 34.6912 115.189 35.1992C115.783 35.7021 116.079 36.4113 116.079 37.3267V40.8649C116.084 41.6395 116.193 42.2254 116.404 42.6227V42.751H114.201ZM112.398 41.2346C112.72 41.2346 113.016 41.1642 113.288 41.0233C113.56 40.8775 113.761 40.6838 113.892 40.4424V39.0392H113.077C111.985 39.0392 111.404 39.4164 111.334 40.1708L111.326 40.2991C111.326 40.5707 111.422 40.7945 111.613 40.9705C111.804 41.1466 112.066 41.2346 112.398 41.2346ZM122.341 36.6326C122.044 36.5923 121.783 36.5722 121.557 36.5722C120.732 36.5722 120.191 36.8514 119.934 37.4096V42.751H117.754V34.5881H119.814L119.874 35.5613C120.312 34.8119 120.918 34.4372 121.692 34.4372C121.934 34.4372 122.16 34.4699 122.371 34.5353L122.341 36.6326ZM122.907 38.6092C122.907 37.3367 123.191 36.3233 123.759 35.5688C124.333 34.8144 125.115 34.4372 126.106 34.4372C126.9 34.4372 127.557 34.7339 128.075 35.3274V31.163H130.263V42.751H128.294L128.188 41.8834C127.645 42.5624 126.946 42.9019 126.091 42.9019C125.13 42.9019 124.358 42.5246 123.775 41.7702C123.196 41.0108 122.907 39.9571 122.907 38.6092ZM125.087 38.7676C125.087 39.5321 125.22 40.118 125.487 40.5254C125.754 40.9328 126.141 41.1365 126.649 41.1365C127.323 41.1365 127.798 40.8523 128.075 40.284V37.0626C127.803 36.4943 127.333 36.2101 126.664 36.2101C125.613 36.2101 125.087 37.0626 125.087 38.7676ZM136.373 40.4952C136.373 40.2287 136.24 40.02 135.974 39.8691C135.712 39.7132 135.29 39.5748 134.706 39.4541C132.765 39.0467 131.794 38.2219 131.794 36.9796C131.794 36.2554 132.093 35.6518 132.692 35.169C133.295 34.6811 134.082 34.4372 135.053 34.4372C136.089 34.4372 136.917 34.6811 137.535 35.169C138.159 35.6569 138.471 36.2906 138.471 37.0701H136.29C136.29 36.7583 136.19 36.5018 135.989 36.3006C135.787 36.0944 135.473 35.9913 135.046 35.9913C134.678 35.9913 134.394 36.0743 134.193 36.2403C133.992 36.4063 133.891 36.6175 133.891 36.874C133.891 37.1154 134.005 37.3116 134.231 37.4625C134.462 37.6083 134.849 37.7366 135.393 37.8472C135.936 37.9528 136.394 38.0735 136.766 38.2093C137.917 38.6318 138.493 39.3636 138.493 40.4047C138.493 41.1491 138.174 41.7526 137.535 42.2153C136.896 42.673 136.072 42.9019 135.061 42.9019C134.377 42.9019 133.768 42.7812 133.235 42.5397C132.707 42.2933 132.292 41.9588 131.99 41.5364C131.688 41.1088 131.538 40.6486 131.538 40.1558H133.605C133.625 40.543 133.768 40.8398 134.035 41.046C134.301 41.2522 134.658 41.3553 135.106 41.3553C135.523 41.3553 135.838 41.2773 136.049 41.1214C136.265 40.9605 136.373 40.7517 136.373 40.4952Z" fill="white"/>
<path d="M31.4227 138.393H32.6927V139.343H31.4227V141.468H30.2534V139.343H26.0852V138.658L30.1842 132.314H31.4227V138.393ZM27.4054 138.393H30.2534V133.905L30.1151 134.156L27.4054 138.393ZM39.7403 141.468H33.7426V140.632L36.9112 137.111C37.3806 136.579 37.7033 136.147 37.8794 135.816C38.0596 135.481 38.1497 135.135 38.1497 134.779C38.1497 134.301 38.0051 133.909 37.7159 133.603C37.4267 133.297 37.0411 133.144 36.5591 133.144C35.9807 133.144 35.5302 133.309 35.2074 133.641C34.8889 133.968 34.7296 134.424 34.7296 135.011H33.5665C33.5665 134.169 33.8369 133.488 34.3776 132.968C34.9224 132.448 35.6496 132.188 36.5591 132.188C37.4099 132.188 38.0826 132.413 38.5772 132.861C39.0718 133.305 39.319 133.898 39.319 134.64C39.319 135.541 38.7448 136.614 37.5964 137.859L35.1446 140.518H39.7403V141.468ZM45.8826 138.393H47.1525V139.343H45.8826V141.468H44.7132V139.343H40.545V138.658L44.644 132.314H45.8826V138.393ZM41.8652 138.393H44.7132V133.905L44.5749 134.156L41.8652 138.393ZM54.2001 141.468H48.2024V140.632L51.371 137.111C51.8404 136.579 52.1631 136.147 52.3392 135.816C52.5194 135.481 52.6095 135.135 52.6095 134.779C52.6095 134.301 52.4649 133.909 52.1757 133.603C51.8865 133.297 51.5009 133.144 51.0189 133.144C50.4405 133.144 49.99 133.309 49.6673 133.641C49.3487 133.968 49.1895 134.424 49.1895 135.011H48.0264C48.0264 134.169 48.2967 133.488 48.8374 132.968C49.3823 132.448 50.1094 132.188 51.0189 132.188C51.8698 132.188 52.5425 132.413 53.037 132.861C53.5316 133.305 53.7789 133.898 53.7789 134.64C53.7789 135.541 53.2047 136.614 52.0563 137.859L49.6044 140.518H54.2001V141.468ZM59.94 135.288L58.0414 134.722L58.3306 133.773L60.2292 134.477L60.1726 132.314H61.1345L61.0717 134.508L62.9389 133.817L63.2281 134.772L61.298 135.344L62.5428 137.048L61.7632 137.639L60.5939 135.828L59.4622 137.595L58.6764 137.023L59.94 135.288ZM65.4851 135.288L63.5864 134.722L63.8756 133.773L65.7743 134.477L65.7177 132.314H66.6796L66.6167 134.508L68.4839 133.817L68.7731 134.772L66.843 135.344L68.0878 137.048L67.3083 137.639L66.1389 135.828L65.0073 137.595L64.2214 137.023L65.4851 135.288ZM71.0301 135.288L69.1314 134.722L69.4206 133.773L71.3193 134.477L71.2627 132.314H72.2246L72.1617 134.508L74.0289 133.817L74.3181 134.772L72.3881 135.344L73.6329 137.048L72.8533 137.639L71.6839 135.828L70.5523 137.595L69.7664 137.023L71.0301 135.288ZM76.5751 135.288L74.6765 134.722L74.9657 133.773L76.8643 134.477L76.8077 132.314H77.7696L77.7068 134.508L79.574 133.817L79.8632 134.772L77.9331 135.344L79.1779 137.048L78.3983 137.639L77.229 135.828L76.0973 137.595L75.3115 137.023L76.5751 135.288ZM85.3139 135.288L83.4152 134.722L83.7044 133.773L85.6031 134.477L85.5465 132.314H86.5084L86.4455 134.508L88.3127 133.817L88.6019 134.772L86.6719 135.344L87.9167 137.048L87.1371 137.639L85.9677 135.828L84.8361 137.595L84.0502 137.023L85.3139 135.288ZM90.8589 135.288L88.9603 134.722L89.2495 133.773L91.1481 134.477L91.0915 132.314H92.0534L91.9906 134.508L93.8578 133.817L94.147 134.772L92.2169 135.344L93.4617 137.048L92.6821 137.639L91.5128 135.828L90.3811 137.595L89.5953 137.023L90.8589 135.288ZM96.4039 135.288L94.5053 134.722L94.7945 133.773L96.6931 134.477L96.6366 132.314H97.5985L97.5356 134.508L99.4028 133.817L99.692 134.772L97.7619 135.344L99.0067 137.048L98.2271 137.639L97.0578 135.828L95.9261 137.595L95.1403 137.023L96.4039 135.288ZM101.949 135.288L100.05 134.722L100.34 133.773L102.238 134.477L102.182 132.314H103.143L103.081 134.508L104.948 133.817L105.237 134.772L103.307 135.344L104.552 137.048L103.772 137.639L102.603 135.828L101.471 137.595L100.685 137.023L101.949 135.288ZM115.371 141.468H109.374V140.632L112.542 137.111C113.012 136.579 113.335 136.147 113.511 135.816C113.691 135.481 113.781 135.135 113.781 134.779C113.781 134.301 113.636 133.909 113.347 133.603C113.058 133.297 112.672 133.144 112.19 133.144C111.612 133.144 111.161 133.309 110.839 133.641C110.52 133.968 110.361 134.424 110.361 135.011H109.198C109.198 134.169 109.468 133.488 110.009 132.968C110.554 132.448 111.281 132.188 112.19 132.188C113.041 132.188 113.714 132.413 114.208 132.861C114.703 133.305 114.95 133.898 114.95 134.64C114.95 135.541 114.376 136.614 113.228 137.859L110.776 140.518H115.371V141.468ZM121.514 138.393H122.784V139.343H121.514V141.468H120.344V139.343H116.176V138.658L120.275 132.314H121.514V138.393ZM117.496 138.393H120.344V133.905L120.206 134.156L117.496 138.393ZM124.368 136.878L124.833 132.314H129.523V133.389H125.82L125.544 135.885C125.992 135.621 126.501 135.489 127.071 135.489C127.905 135.489 128.568 135.766 129.058 136.319C129.548 136.868 129.794 137.612 129.794 138.551C129.794 139.494 129.538 140.238 129.027 140.783C128.519 141.323 127.809 141.594 126.895 141.594C126.086 141.594 125.426 141.369 124.915 140.921C124.404 140.472 124.112 139.852 124.041 139.06H125.141C125.213 139.584 125.399 139.98 125.701 140.248C126.003 140.512 126.401 140.644 126.895 140.644C127.436 140.644 127.859 140.46 128.165 140.091C128.475 139.722 128.631 139.213 128.631 138.563C128.631 137.951 128.463 137.461 128.128 137.092C127.796 136.719 127.354 136.533 126.801 136.533C126.294 136.533 125.896 136.644 125.607 136.866L125.298 137.117L124.368 136.878ZM135.628 132.308V133.295H135.414C134.509 133.312 133.788 133.58 133.251 134.1C132.715 134.619 132.405 135.351 132.321 136.294C132.803 135.74 133.461 135.464 134.295 135.464C135.091 135.464 135.726 135.745 136.2 136.306C136.678 136.868 136.917 137.593 136.917 138.482C136.917 139.425 136.659 140.179 136.143 140.745C135.632 141.311 134.945 141.594 134.081 141.594C133.205 141.594 132.495 141.258 131.95 140.588C131.405 139.913 131.133 139.045 131.133 137.985V137.538C131.133 135.854 131.491 134.567 132.208 133.678C132.929 132.786 134 132.329 135.42 132.308H135.628ZM134.1 136.432C133.702 136.432 133.335 136.551 133 136.79C132.665 137.029 132.432 137.329 132.302 137.689V138.117C132.302 138.871 132.472 139.479 132.811 139.94C133.151 140.401 133.574 140.632 134.081 140.632C134.605 140.632 135.016 140.439 135.313 140.053C135.615 139.668 135.766 139.163 135.766 138.538C135.766 137.909 135.613 137.402 135.307 137.017C135.005 136.627 134.603 136.432 134.1 136.432Z" fill="white"/>
<circle cx="253.326" cy="138.09" r="8.69099" fill="white"/>
<circle opacity="0.75" cx="262.982" cy="138.09" r="8.69099" fill="white"/>
</svg>
