<svg width="1500" height="2750" viewBox="0 0 1500 2750" fill="none" xmlns="http://www.w3.org/2000/svg">
<g opacity="0.2">
<path opacity="0.01" d="M-16.9815 2549.6C-100.005 2395.73 -221.317 2066.78 -106.217 1803.82C-54.0186 1684.58 180.661 1600.55 118.27 1118.33C71.5263 757.047 446.137 110.759 407.262 66.775" stroke="black" stroke-width="1.24945"/>
<path opacity="0.0421053" d="M-10.6138 2553.51C-80.0288 2393.71 -172.467 2057.01 -35.1048 1806.42C27.1892 1692.78 268.218 1630.02 247.709 1146.55C232.343 784.319 661.314 176.447 626.388 129.443" stroke="black" stroke-width="1.24945"/>
<path opacity="0.0842105" d="M-5.56704 2557.21C-60.9715 2392.68 -124.105 2050.74 34.2412 1814.39C106.052 1707.2 351.508 1666.18 372.629 1185.05C388.453 824.587 867.943 259.662 837.196 209.991" stroke="black" stroke-width="1.24945"/>
<path opacity="0.126316" d="M-1.81729 2560.58C-42.9135 2392.54 -76.5298 2047.9 101.367 1827.52C182.044 1727.57 429.974 1708.58 492.163 1233.36C538.756 877.326 1064.55 359.504 1038.18 307.535" stroke="black" stroke-width="1.24945"/>
<path opacity="0.168421" d="M0.668712 2563.5C-25.9271 2393.19 -30.0322 2048.38 165.84 1845.57C254.668 1753.6 503.103 1756.74 605.497 1290.92C682.211 941.917 1249.76 474.946 1227.93 421.062" stroke="black" stroke-width="1.24945"/>
<path opacity="0.210526" d="M1.93482 2565.88C-10.0748 2394.53 15.1101 2052.06 227.252 1868.28C323.459 1784.93 570.427 1810.15 711.869 1357.1C817.839 1017.66 1422.28 604.851 1405.14 549.448" stroke="black" stroke-width="1.24945"/>
<path opacity="0.252632" d="M2.03419 2567.6C4.5907 2396.46 58.6324 2058.8 285.225 1895.32C387.985 1821.18 631.53 1868.25 810.583 1431.21C944.732 1103.76 1580.97 747.977 1568.6 691.459" stroke="black" stroke-width="1.24945"/>
<path opacity="0.294737" d="M1.02784 2568.56C18.0254 2398.87 100.284 2068.44 339.407 1926.37C447.851 1861.94 686.047 1930.45 901.007 1512.51C1062.06 1199.38 1724.76 902.99 1717.24 845.768" stroke="black" stroke-width="1.24945"/>
<path opacity="0.336842" d="M-1.01472 2568.68C30.1956 2401.64 139.83 2080.77 389.484 1961.05C502.702 1906.75 733.668 1996.12 982.579 1600.21C1169.07 1303.58 1852.74 1068.47 1850.09 1010.96" stroke="black" stroke-width="1.24945"/>
<path opacity="0.378947" d="M-4.01473 2567.86C41.0794 2404.65 177.058 2095.6 435.172 1998.97C552.228 1955.15 774.143 2064.64 1054.81 1693.47C1265.1 1415.38 1964.12 1242.94 1966.34 1185.55" stroke="black" stroke-width="1.24945"/>
<path opacity="0.421053" d="M-7.8875 2566.03C50.6637 2407.8 211.77 2112.7 476.228 2039.72C596.161 2006.63 807.278 2135.34 1117.3 1791.43C1349.58 1533.76 2058.25 1424.86 2065.3 1368" stroke="black" stroke-width="1.24945"/>
<path opacity="0.463158" d="M-12.5418 2563.11C58.9464 2410.96 243.794 2131.83 512.445 2082.87C634.279 2060.67 832.941 2207.55 1169.72 1893.18C1422.04 1657.64 2134.62 1612.63 2146.42 1556.7" stroke="black" stroke-width="1.24945"/>
<path opacity="0.505263" d="M-17.8789 2559.04C65.9369 2414.02 272.976 2152.75 543.656 2127.98C666.411 2116.74 851.06 2280.6 1211.82 1997.8C1482.11 1785.93 2192.88 1804.64 2209.33 1750.05" stroke="black" stroke-width="1.24945"/>
<path opacity="0.547368" d="M-23.7969 2553.76C71.6532 2416.86 299.189 2175.19 569.736 2174.58C692.43 2174.3 861.623 2353.8 1243.44 2104.37C1529.5 1917.49 2232.8 1999.26 2253.75 1946.38" stroke="black" stroke-width="1.24945"/>
<path opacity="0.589474" d="M-30.1875 2547.23C76.1253 2419.37 322.328 2198.88 590.6 2222.22C712.262 2232.8 864.68 2426.5 1264.5 2211.93C1564.05 2051.18 2254.32 2194.84 2279.6 2144.04" stroke="black" stroke-width="1.24945"/>
<path opacity="0.631579" d="M-36.9407 2539.42C79.391 2421.44 342.312 2223.55 606.203 2270.42C725.878 2291.68 860.338 2498.03 1275 2319.56C1585.68 2185.85 2257.51 2389.76 2286.92 2341.39" stroke="black" stroke-width="1.24945"/>
<path opacity="0.673684" d="M-43.9419 2530.28C81.4997 2422.97 359.086 2248.9 616.545 2318.73C733.303 2350.4 848.764 2567.73 1275.05 2426.32C1594.42 2320.37 2242.59 2582.39 2275.91 2536.79" stroke="black" stroke-width="1.24945"/>
<path opacity="0.715789" d="M-51.0759 2519.82C82.5082 2423.85 372.621 2274.66 621.663 2366.68C734.605 2408.42 830.181 2634.98 1264.79 2531.29C1590.41 2453.61 2209.92 2771.16 2246.88 2728.64" stroke="black" stroke-width="1.24945"/>
<path opacity="0.757895" d="M-58.2263 2508.01C82.4821 2424 382.909 2300.54 621.638 2413.82C729.902 2465.19 804.864 2699.19 1244.49 2633.59C1573.87 2584.45 2160.01 2954.54 2200.33 2915.38" stroke="black" stroke-width="1.24945"/>
<path opacity="0.8" d="M-65.2767 2494.88C81.4947 2423.33 389.97 2326.27 616.586 2459.7C719.357 2520.22 773.141 2759.77 1214.47 2732.36C1545.12 2711.82 2093.47 3131.04 2136.85 3095.52" stroke="black" stroke-width="1.24945"/>
</g>
</svg>
